<?xml version="1.0" encoding="utf-8"?>
<svg width="250px" height="115px" viewBox="0 0 250 115" version="1.1" xmlns:xlink="http://www.w3.org/1999/xlink" xmlns="http://www.w3.org/2000/svg">
  <desc>Created with Lunacy</desc>
  <defs>
    <rect width="250" height="115" id="artboard_1" />
    <clipPath id="clip_1">
      <use xlink:href="#artboard_1" clip-rule="evenodd" />
    </clipPath>
  </defs>
  <g id="button/big" clip-path="url(#clip_1)">
    <use xlink:href="#artboard_1" stroke="none" fill="#FFFFFF" />
    <path d="M0 0L250 0L250 115L0 115L0 0Z" id="button-bg" fill="#1574F6" stroke="none" />
    <g id="Button-elements" transform="translate(81 48)">
      <g id="Button-elements">
        <g id="ENTER" fill="#FFFFFF">
          <path d="M6.94336 15.2515L1.37695 15.2515L1.37695 4.74854L6.70898 4.74854L6.70898 5.86182L2.60742 5.86182L2.60742 9.35547L6.40137 9.35547L6.40137 10.4614L2.60742 10.4614L2.60742 14.1382L6.94336 14.1382L6.94336 15.2515ZM19.047 15.2515L17.5382 15.2515L12.133 6.87988Q11.9279 6.56494 11.796 6.2207L11.7521 6.2207Q11.8107 6.55762 11.8107 7.66357L11.8107 15.2515L10.5802 15.2515L10.5802 4.74854L12.1769 4.74854L17.4357 12.9883Q17.7653 13.501 17.8605 13.6914L17.8898 13.6914Q17.8166 13.2373 17.8166 12.146L17.8166 4.74854L19.047 4.74854L19.047 15.2515ZM26.595 5.86182L29.6273 5.86182L29.6273 4.74854L22.3397 4.74854L22.3397 5.86182L25.3646 5.86182L25.3646 15.2515L26.595 15.2515L26.595 5.86182ZM38.457 15.2515L32.8906 15.2515L32.8906 4.74854L38.2226 4.74854L38.2226 5.86182L34.1211 5.86182L34.1211 9.35547L37.915 9.35547L37.915 10.4614L34.1211 10.4614L34.1211 14.1382L38.457 14.1382L38.457 15.2515ZM48.1583 15.2515L49.6232 15.2515L47.6529 12.0947Q47.4405 11.7505 47.2684 11.4905Q47.0963 11.2305 46.9205 11.0254Q46.7447 10.8203 46.5507 10.6702Q46.3566 10.52 46.0929 10.4028L46.0929 10.3735Q46.6276 10.2344 47.056 9.98169Q47.4845 9.729 47.7884 9.37012Q48.0924 9.01123 48.2572 8.55347Q48.422 8.0957 48.422 7.54639Q48.422 6.84326 48.1803 6.31958Q47.9386 5.7959 47.5101 5.44434Q47.0817 5.09277 46.4994 4.92065Q45.9171 4.74854 45.2286 4.74854L42.0939 4.74854L42.0939 15.2515L43.3243 15.2515L43.3243 10.7837L44.3351 10.7837Q44.6793 10.7837 44.954 10.8679Q45.2286 10.9521 45.4667 11.1353Q45.7047 11.3184 45.9318 11.6077Q46.1588 11.897 46.4005 12.3071L48.1583 15.2515ZM43.3243 9.67041L43.3243 5.86182L45.0089 5.86182Q46.0416 5.86182 46.5873 6.33423Q47.1329 6.80664 47.1329 7.64893Q47.1329 8.11768 46.9718 8.49487Q46.8107 8.87207 46.525 9.13208Q46.2394 9.39209 45.8475 9.53125Q45.4557 9.67041 44.9943 9.67041L43.3243 9.67041Z" />
        </g>
        <g id="arrow-right" transform="translate(68 3)">
          <path d="M0 0.5L20 0.5" transform="translate(0 6.5)" id="Path" fill="none" stroke="#FFFFFF" stroke-width="2" />
          <path d="M0 0L7 7L0 14" transform="translate(13 0)" id="Path" fill="none" stroke="#FFFFFF" stroke-width="2" stroke-linecap="square" />
        </g>
      </g>
    </g>
  </g>
</svg>